<svg xmlns="http://www.w3.org/2000/svg" width="32" height="32" viewBox="0 0 8.467 8.467"><g transform="matrix(.26458 0 0 .26458 501.695 -536.263)"><path fill="#d0a793" fill-rule="evenodd" d="m -1891.9157,2048.8219 c -0.2821,-10e-5 -0.5,0.2179 -0.5,0.5 v 4 c 0,0.282 0.2179,0.5 0.5,0.5 h 22.9922 v -5 z"/><path fill="#eeddd6" fill-rule="evenodd" d="m -1868.4243,2040.3261 c 0.2821,-10e-5 0.5,0.2179 0.5,0.5 v 4 c 0,0.282 -0.2179,0.5 -0.5,0.5 h -22.9922 v -5 z"/><path fill="#d0a793" fill-rule="evenodd" d="m -1891.9122,2031.8229 c -0.2821,-2e-4 -0.5,0.2178 -0.5,0.5 v 4 c 0,0.282 0.2179,0.5 0.5,0.5 h 22.9922 v -5 z"/><path fill="#484666" fill-rule="evenodd" style="line-height:normal;font-variant-ligatures:normal;font-variant-position:normal;font-variant-caps:normal;font-variant-numeric:normal;font-variant-alternates:normal;font-feature-settings:normal;text-indent:0;text-align:start;text-decoration-line:none;text-decoration-style:solid;text-decoration-color:#000;text-transform:none;text-orientation:mixed;shape-padding:0;isolation:auto;mix-blend-mode:normal" d="m -1870.4279,2039.3233 a 0.49978202,0.49978202 0 0 0 -0.088,0.01 h -20.8984 a 0.49971487,0.49971487 0 1 0 0,0.998 h 17.4941 v 3.4961 a 0.49978202,0.49978202 0 0 0 0.7774,0.416 l 1.2226,-0.8145 1.2246,0.8125 a 0.49978202,0.49978202 0 0 0 0.7754,-0.416 v -3.4941 h 1.5 c 0.2825,0 0.5,0.2187 0.5,0.5 v 3.9961 c 0,0.2813 -0.2175,0.498 -0.5,0.498 h -22.9941 a 0.5,0.5 0 0 0 0,1 h 22.9941 c 0.822,0 1.5,-0.676 1.5,-1.498 v -3.9961 c 0,-0.822 -0.678,-1.498 -1.5,-1.498 h -1.9062 a 0.49978202,0.49978202 0 0 0 -0.1016,-0.01 z" color="#000" font-family="sans-serif" font-weight="400" overflow="visible" white-space="normal"/><path fill="#e9af7f" fill-rule="evenodd" style="line-height:normal;font-variant-ligatures:normal;font-variant-position:normal;font-variant-caps:normal;font-variant-numeric:normal;font-variant-alternates:normal;font-feature-settings:normal;text-indent:0;text-align:start;text-decoration-line:none;text-decoration-style:solid;text-decoration-color:#000;text-transform:none;text-orientation:mixed;shape-padding:0;isolation:auto;mix-blend-mode:normal" d="m -1872.92,2040.3291 h 2 v 2.5625 l -0.7227,-0.4805 a 0.49978202,0.49978202 0 0 0 -0.5546,0 l -0.7227,0.4805 z" color="#000" font-family="sans-serif" font-weight="400" overflow="visible" white-space="normal"/><path fill="#e99b76" fill-rule="evenodd" style="line-height:normal;font-variant-ligatures:normal;font-variant-position:normal;font-variant-caps:normal;font-variant-numeric:normal;font-variant-alternates:normal;font-feature-settings:normal;text-indent:0;text-align:start;text-decoration-line:none;text-decoration-style:solid;text-decoration-color:#000;text-transform:none;text-orientation:mixed;shape-padding:0;isolation:auto;mix-blend-mode:normal" d="m -1871.9044,2040.3287 v 1.9981 c 0.093,0 0.184,0.032 0.2617,0.084 l 0.7227,0.4804 v -2.5625 z" color="#000" font-family="sans-serif" font-weight="400" overflow="visible" white-space="normal"/><path fill="#484666" fill-rule="evenodd" d="M-1891.9122 2030.822c-.8225-.0001-1.5.6775-1.5 1.5v4c0 .8225.6775 1.5001 1.5 1.5h22.9922a.5.5 0 1 0 0-1h-22.9922c-.2821 0-.5-.218-.5-.5v-4c0-.2821.2179-.5001.5-.5h22.9922a.5.5 0 1 0 0-1zM-1889.9122 2047.8191a.49978202.49978202 0 0 1 .088.01h20.8984a.49971487.49971487 0 1 1 0 .998h-17.4941v3.4961a.49978202.49978202 0 0 1-.7774.416l-1.2226-.8144-1.2246.8125a.49978202.49978202 0 0 1-.7754-.4161v-3.4941h-1.5c-.2825 0-.5.2187-.5.5v3.9961c0 .2813.2175.498.5.498h22.9941a.5.5 0 0 1 0 1h-22.9941c-.822 0-1.5-.676-1.5-1.498v-3.9961c0-.822.678-1.498 1.5-1.498h1.9062a.49978202.49978202 0 0 1 .1016-.01z" color="#000" font-family="sans-serif" font-weight="400" overflow="visible" white-space="normal" style="line-height:normal;font-variant-ligatures:normal;font-variant-position:normal;font-variant-caps:normal;font-variant-numeric:normal;font-variant-alternates:normal;font-feature-settings:normal;text-indent:0;text-align:start;text-decoration-line:none;text-decoration-style:solid;text-decoration-color:#000;text-transform:none;text-orientation:mixed;shape-padding:0;isolation:auto;mix-blend-mode:normal"/><path fill="#ff7f58" fill-rule="evenodd" d="m -1887.42,2048.8249 h -2 v 2.5625 l 0.7226,-0.4805 a 0.49978202,0.49978202 0 0 1 0.5547,0 l 0.7227,0.4805 z" color="#000" font-family="sans-serif" font-weight="400" overflow="visible" white-space="normal" style="line-height:normal;font-variant-ligatures:normal;font-variant-position:normal;font-variant-caps:normal;font-variant-numeric:normal;font-variant-alternates:normal;font-feature-settings:normal;text-indent:0;text-align:start;text-decoration-line:none;text-decoration-style:solid;text-decoration-color:#000;text-transform:none;text-orientation:mixed;shape-padding:0;isolation:auto;mix-blend-mode:normal"/><path fill="#ff7158" fill-rule="evenodd" d="m -1888.4045,2048.8249 v 1.998 c 0.093,0 0.184,0.032 0.2617,0.084 l 0.7228,0.4805 v -2.5625 z" color="#000" font-family="sans-serif" font-weight="400" overflow="visible" white-space="normal" style="line-height:normal;font-variant-ligatures:normal;font-variant-position:normal;font-variant-caps:normal;font-variant-numeric:normal;font-variant-alternates:normal;font-feature-settings:normal;text-indent:0;text-align:start;text-decoration-line:none;text-decoration-style:solid;text-decoration-color:#000;text-transform:none;text-orientation:mixed;shape-padding:0;isolation:auto;mix-blend-mode:normal"/><path fill="#d39a81" fill-rule="evenodd" d="m -1891.9122,2031.8229 c -0.2821,-2e-4 -0.5,0.2178 -0.5,0.5 v 4 c 0,0.2736 0.2066,0.4837 0.4766,0.496 0,-0.019 -0.012,-0.035 -0.012,-0.055 v -4 c 0,-0.2822 0.2179,-0.5001 0.5,-0.5 h 22.5273 v -0.4415 z"/><path fill="#f3cfc1" fill-rule="evenodd" d="m -1891.416,1019.9688 v 0.4374 h 17.4961 v -0.4374 h -17.4942 z m 21.4961,0 v 0.4374 h 1.0312 c 0.2821,0 0.5,0.218 0.5,0.5 v 4 c 0,0.019 -0.011,0.035 -0.012,0.053 0.012,-5e-4 0.022,0 0.033,-0.01 0.2524,-0.028 0.4434,-0.2268 0.4434,-0.4883 v -4 c 0,-0.07 -0.014,-0.1371 -0.039,-0.1972 -0.024,-0.058 -0.059,-0.1105 -0.1016,-0.1543 -0.09,-0.09 -0.2142,-0.1445 -0.3554,-0.1445 z" transform="translate(0 1020.362)"/><path fill="#d39a81" fill-rule="evenodd" d="m -1891.9199,1028.4648 c -0.1413,0 -0.2658,0.055 -0.3555,0.1446 -0.043,0.044 -0.078,0.096 -0.1016,0.1543 -0.025,0.06 -0.039,0.1267 -0.039,0.1972 v 4 c 0,0.2052 0.117,0.3741 0.289,0.4512 0.043,0.019 0.092,0.026 0.1407,0.033 0.016,0 0.03,0.01 0.047,0.01 -7e-4,-0.018 -0.012,-0.035 -0.012,-0.055 v -4 c 0,-0.2821 0.2179,-0.5001 0.5,-0.5 h 1.0313 v -0.4356 z m 5.5,0 v 0.4356 h 17.4961 v -0.4356 z" transform="translate(0 1020.362)"/></g></svg>